<mxfile host="65bd71144e">
    <diagram id="JLrcFCSdqWXNyjOGV6EB" name="Page-1">
        <mxGraphModel dx="742" dy="827" grid="1" gridSize="10" guides="1" tooltips="1" connect="1" arrows="1" fold="1" page="1" pageScale="1" pageWidth="827" pageHeight="1169" math="0" shadow="0">
            <root>
                <mxCell id="0"/>
                <mxCell id="1" parent="0"/>
                <mxCell id="2" value="main.go" style="swimlane;whiteSpace=wrap;html=1;rounded=1;sketch=1;curveFitting=1;jiggle=2;" vertex="1" parent="1">
                    <mxGeometry x="100" y="340" width="200" height="200" as="geometry"/>
                </mxCell>
                <mxCell id="4" value="Actions&lt;br&gt;List&lt;br&gt;Add&lt;br&gt;Remove&lt;br&gt;" style="text;html=1;align=center;verticalAlign=middle;resizable=0;points=[];autosize=1;strokeColor=none;fillColor=none;rounded=1;sketch=1;curveFitting=1;jiggle=2;" vertex="1" parent="2">
                    <mxGeometry x="10" y="110" width="70" height="70" as="geometry"/>
                </mxCell>
                <mxCell id="5" value="Array to store list" style="text;html=1;align=center;verticalAlign=middle;resizable=0;points=[];autosize=1;strokeColor=none;fillColor=none;rounded=1;sketch=1;curveFitting=1;jiggle=2;" vertex="1" parent="2">
                    <mxGeometry x="10" y="30" width="110" height="30" as="geometry"/>
                </mxCell>
                <mxCell id="6" value="file.go" style="swimlane;whiteSpace=wrap;html=1;rounded=1;sketch=1;curveFitting=1;jiggle=2;" vertex="1" parent="1">
                    <mxGeometry x="400" y="170" width="200" height="200" as="geometry"/>
                </mxCell>
                <mxCell id="9" value="Action&lt;br&gt;Read&lt;br&gt;write" style="text;html=1;align=center;verticalAlign=middle;resizable=0;points=[];autosize=1;strokeColor=none;fillColor=none;rounded=1;sketch=1;curveFitting=1;jiggle=2;" vertex="1" parent="6">
                    <mxGeometry x="70" y="110" width="60" height="60" as="geometry"/>
                </mxCell>
                <mxCell id="10" style="edgeStyle=none;html=1;rounded=1;sketch=1;curveFitting=1;jiggle=2;" edge="1" parent="1" source="5" target="9">
                    <mxGeometry relative="1" as="geometry"/>
                </mxCell>
            </root>
        </mxGraphModel>
    </diagram>
</mxfile>